<svg xmlns="http://www.w3.org/2000/svg" viewBox="0 0 512 512" role="img" aria-label="HoldOff icon">
  <defs>
    <linearGradient id="bg" x1="0" x2="1" y1="0" y2="1">
      <stop offset="0" stop-color="#12051f"/>
      <stop offset="0.52" stop-color="#241047"/>
      <stop offset="1" stop-color="#061a3d"/>
    </linearGradient>
    <radialGradient id="glow" cx="50%" cy="42%" r="58%">
      <stop offset="0" stop-color="#c9a7ff" stop-opacity="0.7"/>
      <stop offset="1" stop-color="#c9a7ff" stop-opacity="0"/>
    </radialGradient>
  </defs>
  <rect width="512" height="512" rx="116" fill="url(#bg)"/>
  <circle cx="256" cy="220" r="180" fill="url(#glow)"/>
  <path d="M145 157c0-24 20-44 44-44h134c24 0 44 20 44 44v93c0 24-20 44-44 44h-73l-70 67c-11 10-29 2-29-13v-54h-6c-24 0-44-20-44-44v-93Z" fill="#f8f1ff" opacity="0.96"/>
  <path d="M183 178h146M183 218h104" stroke="#241047" stroke-width="28" stroke-linecap="round"/>
  <circle cx="349" cy="342" r="62" fill="#2df2c4" opacity="0.95"/>
  <path d="M349 306v40" stroke="#061a3d" stroke-width="20" stroke-linecap="round"/>
  <circle cx="349" cy="374" r="10" fill="#061a3d"/>
</svg>
